<mxfile host="Electron" modified="2024-09-27T13:35:04.970Z" agent="Mozilla/5.0 (Windows NT 10.0; Win64; x64) AppleWebKit/537.36 (KHTML, like Gecko) draw.io/24.6.4 Chrome/124.0.6367.207 Electron/30.0.6 Safari/537.36" etag="SEASs6twIvOo29Ngi1qF" version="24.6.4" type="device" pages="2">
  <diagram name="aws" id="i24xZnsNgVZGHwL_YaCX">
    <mxGraphModel dx="1750" dy="1115" grid="1" gridSize="10" guides="1" tooltips="1" connect="1" arrows="1" fold="1" page="1" pageScale="1" pageWidth="850" pageHeight="1100" math="0" shadow="0">
      <root>
        <mxCell id="0" />
        <mxCell id="1" parent="0" />
        <mxCell id="zLYoDv3LnudWlQV-HHbG-6" value="VPC" style="points=[[0,0],[0.25,0],[0.5,0],[0.75,0],[1,0],[1,0.25],[1,0.5],[1,0.75],[1,1],[0.75,1],[0.5,1],[0.25,1],[0,1],[0,0.75],[0,0.5],[0,0.25]];outlineConnect=0;gradientColor=none;html=1;whiteSpace=wrap;fontSize=12;fontStyle=0;container=1;pointerEvents=0;collapsible=0;recursiveResize=0;shape=mxgraph.aws4.group;grIcon=mxgraph.aws4.group_vpc2;strokeColor=#8C4FFF;fillColor=none;verticalAlign=top;align=left;spacingLeft=30;fontColor=#AAB7B8;dashed=0;" vertex="1" parent="1">
          <mxGeometry x="110" y="67" width="600" height="480" as="geometry" />
        </mxCell>
        <mxCell id="2VPFddi3ORE-RlND4OTE-6" style="edgeStyle=orthogonalEdgeStyle;rounded=0;orthogonalLoop=1;jettySize=auto;html=1;endArrow=none;endFill=0;dashed=1;" edge="1" parent="zLYoDv3LnudWlQV-HHbG-6" source="zLYoDv3LnudWlQV-HHbG-7" target="2VPFddi3ORE-RlND4OTE-1">
          <mxGeometry relative="1" as="geometry" />
        </mxCell>
        <mxCell id="zLYoDv3LnudWlQV-HHbG-7" value="Public subnet" style="points=[[0,0],[0.25,0],[0.5,0],[0.75,0],[1,0],[1,0.25],[1,0.5],[1,0.75],[1,1],[0.75,1],[0.5,1],[0.25,1],[0,1],[0,0.75],[0,0.5],[0,0.25]];outlineConnect=0;gradientColor=none;html=1;whiteSpace=wrap;fontSize=12;fontStyle=0;container=1;pointerEvents=0;collapsible=0;recursiveResize=0;shape=mxgraph.aws4.group;grIcon=mxgraph.aws4.group_security_group;grStroke=0;strokeColor=#7AA116;fillColor=#F2F6E8;verticalAlign=top;align=left;spacingLeft=30;fontColor=#248814;dashed=0;" vertex="1" parent="zLYoDv3LnudWlQV-HHbG-6">
          <mxGeometry x="99" y="50" width="400" height="130" as="geometry" />
        </mxCell>
        <mxCell id="zLYoDv3LnudWlQV-HHbG-8" value="Private subnet" style="points=[[0,0],[0.25,0],[0.5,0],[0.75,0],[1,0],[1,0.25],[1,0.5],[1,0.75],[1,1],[0.75,1],[0.5,1],[0.25,1],[0,1],[0,0.75],[0,0.5],[0,0.25]];outlineConnect=0;gradientColor=none;html=1;whiteSpace=wrap;fontSize=12;fontStyle=0;container=1;pointerEvents=0;collapsible=0;recursiveResize=0;shape=mxgraph.aws4.group;grIcon=mxgraph.aws4.group_security_group;grStroke=0;strokeColor=#00A4A6;fillColor=#E6F6F7;verticalAlign=top;align=left;spacingLeft=30;fontColor=#147EBA;dashed=0;" vertex="1" parent="zLYoDv3LnudWlQV-HHbG-6">
          <mxGeometry x="99" y="200" width="400" height="230" as="geometry" />
        </mxCell>
        <mxCell id="zLYoDv3LnudWlQV-HHbG-13" value="eks-cluster" style="sketch=0;points=[[0,0,0],[0.25,0,0],[0.5,0,0],[0.75,0,0],[1,0,0],[0,1,0],[0.25,1,0],[0.5,1,0],[0.75,1,0],[1,1,0],[0,0.25,0],[0,0.5,0],[0,0.75,0],[1,0.25,0],[1,0.5,0],[1,0.75,0]];outlineConnect=0;fontColor=#232F3E;fillColor=#ED7100;strokeColor=#ffffff;dashed=0;verticalLabelPosition=bottom;verticalAlign=top;align=center;html=1;fontSize=12;fontStyle=0;aspect=fixed;shape=mxgraph.aws4.resourceIcon;resIcon=mxgraph.aws4.eks;" vertex="1" parent="zLYoDv3LnudWlQV-HHbG-6">
          <mxGeometry x="532" y="305" width="39" height="39" as="geometry" />
        </mxCell>
        <mxCell id="2VPFddi3ORE-RlND4OTE-1" value="eks-igw" style="sketch=0;outlineConnect=0;fontColor=#232F3E;gradientColor=none;fillColor=#8C4FFF;strokeColor=none;dashed=0;verticalLabelPosition=bottom;verticalAlign=top;align=center;html=1;fontSize=12;fontStyle=0;aspect=fixed;pointerEvents=1;shape=mxgraph.aws4.internet_gateway;" vertex="1" parent="zLYoDv3LnudWlQV-HHbG-6">
          <mxGeometry x="581" y="95.5" width="39" height="39" as="geometry" />
        </mxCell>
        <mxCell id="2VPFddi3ORE-RlND4OTE-2" value="AWS Cloud" style="points=[[0,0],[0.25,0],[0.5,0],[0.75,0],[1,0],[1,0.25],[1,0.5],[1,0.75],[1,1],[0.75,1],[0.5,1],[0.25,1],[0,1],[0,0.75],[0,0.5],[0,0.25]];outlineConnect=0;gradientColor=none;html=1;whiteSpace=wrap;fontSize=12;fontStyle=0;container=1;pointerEvents=0;collapsible=0;recursiveResize=0;shape=mxgraph.aws4.group;grIcon=mxgraph.aws4.group_aws_cloud_alt;strokeColor=#232F3E;fillColor=none;verticalAlign=top;align=left;spacingLeft=30;fontColor=#232F3E;dashed=0;" vertex="1" parent="1">
          <mxGeometry x="70" y="27" width="680" height="570" as="geometry" />
        </mxCell>
        <mxCell id="fRBKheuWGkq0n8kjo_F0-1" style="edgeStyle=orthogonalEdgeStyle;rounded=0;orthogonalLoop=1;jettySize=auto;html=1;entryX=0;entryY=0.5;entryDx=0;entryDy=0;" edge="1" parent="2VPFddi3ORE-RlND4OTE-2" source="zLYoDv3LnudWlQV-HHbG-11" target="2VPFddi3ORE-RlND4OTE-3">
          <mxGeometry relative="1" as="geometry">
            <Array as="points">
              <mxPoint x="264" y="155" />
              <mxPoint x="264" y="365" />
            </Array>
          </mxGeometry>
        </mxCell>
        <mxCell id="zLYoDv3LnudWlQV-HHbG-11" value="&lt;font style=&quot;font-size: 11px;&quot;&gt;flask-alb&lt;/font&gt;" style="outlineConnect=0;dashed=0;verticalLabelPosition=bottom;verticalAlign=top;align=center;html=1;shape=mxgraph.aws3.application_load_balancer;fillColor=#F58534;gradientColor=none;" vertex="1" parent="2VPFddi3ORE-RlND4OTE-2">
          <mxGeometry x="320.5" y="135.5" width="39" height="39" as="geometry" />
        </mxCell>
        <mxCell id="2VPFddi3ORE-RlND4OTE-4" value="eks-nat" style="sketch=0;outlineConnect=0;fontColor=#232F3E;gradientColor=none;fillColor=#8C4FFF;strokeColor=none;dashed=0;verticalLabelPosition=bottom;verticalAlign=top;align=center;html=1;fontSize=12;fontStyle=0;aspect=fixed;pointerEvents=1;shape=mxgraph.aws4.nat_gateway;" vertex="1" parent="2VPFddi3ORE-RlND4OTE-2">
          <mxGeometry x="119" y="135.5" width="39" height="39" as="geometry" />
        </mxCell>
        <mxCell id="zLYoDv3LnudWlQV-HHbG-9" value="Auto Scaling group" style="points=[[0,0],[0.25,0],[0.5,0],[0.75,0],[1,0],[1,0.25],[1,0.5],[1,0.75],[1,1],[0.75,1],[0.5,1],[0.25,1],[0,1],[0,0.75],[0,0.5],[0,0.25]];outlineConnect=0;gradientColor=none;html=1;whiteSpace=wrap;fontSize=12;fontStyle=0;container=1;pointerEvents=0;collapsible=0;recursiveResize=0;shape=mxgraph.aws4.groupCenter;grIcon=mxgraph.aws4.group_auto_scaling_group;grStroke=1;strokeColor=#D86613;fillColor=none;verticalAlign=top;align=center;fontColor=#D86613;dashed=1;spacingTop=25;" vertex="1" parent="2VPFddi3ORE-RlND4OTE-2">
          <mxGeometry x="189" y="279.5" width="300" height="170" as="geometry" />
        </mxCell>
        <mxCell id="2VPFddi3ORE-RlND4OTE-3" value="eks-node1" style="points=[[0,0],[0.25,0],[0.5,0],[0.75,0],[1,0],[1,0.25],[1,0.5],[1,0.75],[1,1],[0.75,1],[0.5,1],[0.25,1],[0,1],[0,0.75],[0,0.5],[0,0.25]];outlineConnect=0;gradientColor=none;html=1;whiteSpace=wrap;fontSize=12;fontStyle=0;container=1;pointerEvents=0;collapsible=0;recursiveResize=0;shape=mxgraph.aws4.group;grIcon=mxgraph.aws4.group_ec2_instance_contents;strokeColor=#D86613;fillColor=none;verticalAlign=top;align=left;spacingLeft=30;fontColor=#D86613;dashed=0;" vertex="1" parent="zLYoDv3LnudWlQV-HHbG-9">
          <mxGeometry x="95" y="55" width="110" height="60" as="geometry" />
        </mxCell>
        <mxCell id="2VPFddi3ORE-RlND4OTE-8" value="" style="sketch=0;outlineConnect=0;fontColor=#232F3E;gradientColor=none;fillColor=#ED7100;strokeColor=none;dashed=0;verticalLabelPosition=bottom;verticalAlign=top;align=center;html=1;fontSize=12;fontStyle=0;aspect=fixed;pointerEvents=1;shape=mxgraph.aws4.container_1;" vertex="1" parent="2VPFddi3ORE-RlND4OTE-3">
          <mxGeometry x="37" y="26.28" width="36" height="23.22" as="geometry" />
        </mxCell>
        <mxCell id="2VPFddi3ORE-RlND4OTE-5" style="edgeStyle=orthogonalEdgeStyle;rounded=0;orthogonalLoop=1;jettySize=auto;html=1;dashed=1;endArrow=none;endFill=0;" edge="1" parent="1" source="zLYoDv3LnudWlQV-HHbG-8" target="2VPFddi3ORE-RlND4OTE-4">
          <mxGeometry relative="1" as="geometry">
            <Array as="points">
              <mxPoint x="150" y="382" />
              <mxPoint x="150" y="186.5" />
            </Array>
          </mxGeometry>
        </mxCell>
        <mxCell id="zLYoDv3LnudWlQV-HHbG-14" style="edgeStyle=orthogonalEdgeStyle;rounded=0;orthogonalLoop=1;jettySize=auto;html=1;" edge="1" parent="1" source="zLYoDv3LnudWlQV-HHbG-13" target="zLYoDv3LnudWlQV-HHbG-9">
          <mxGeometry relative="1" as="geometry" />
        </mxCell>
      </root>
    </mxGraphModel>
  </diagram>
  <diagram id="szJqTnWkXRPC3xJFgSdp" name="k8s-cluster">
    <mxGraphModel dx="1050" dy="669" grid="1" gridSize="10" guides="1" tooltips="1" connect="1" arrows="1" fold="1" page="1" pageScale="1" pageWidth="850" pageHeight="1100" math="0" shadow="0">
      <root>
        <mxCell id="0" />
        <mxCell id="1" parent="0" />
        <mxCell id="0JwzUjocz05yxgAcpH7u-2" value="eks-cluster" style="rounded=1;whiteSpace=wrap;html=1;fillColor=none;strokeColor=#2875E2;verticalAlign=top;fontStyle=1" vertex="1" parent="1">
          <mxGeometry x="80" y="60" width="800" height="320" as="geometry" />
        </mxCell>
        <mxCell id="mN_4DbPug9KianaIwhmi-15" value="" style="rounded=1;whiteSpace=wrap;html=1;dashed=1;fillColor=none;" vertex="1" parent="1">
          <mxGeometry x="120" y="118" width="720" height="222" as="geometry" />
        </mxCell>
        <mxCell id="mN_4DbPug9KianaIwhmi-1" value="hpa" style="aspect=fixed;sketch=0;html=1;dashed=0;whitespace=wrap;verticalLabelPosition=bottom;verticalAlign=top;fillColor=#2875E2;strokeColor=#ffffff;points=[[0.005,0.63,0],[0.1,0.2,0],[0.9,0.2,0],[0.5,0,0],[0.995,0.63,0],[0.72,0.99,0],[0.5,1,0],[0.28,0.99,0]];shape=mxgraph.kubernetes.icon2;prIcon=hpa" vertex="1" parent="1">
          <mxGeometry x="739" y="178" width="50" height="48" as="geometry" />
        </mxCell>
        <mxCell id="mN_4DbPug9KianaIwhmi-3" value="flask-pod1" style="aspect=fixed;sketch=0;html=1;dashed=0;whitespace=wrap;verticalLabelPosition=bottom;verticalAlign=top;fillColor=#2875E2;strokeColor=#ffffff;points=[[0.005,0.63,0],[0.1,0.2,0],[0.9,0.2,0],[0.5,0,0],[0.995,0.63,0],[0.72,0.99,0],[0.5,1,0],[0.28,0.99,0]];shape=mxgraph.kubernetes.icon2;prIcon=pod" vertex="1" parent="1">
          <mxGeometry x="430" y="130" width="50" height="48" as="geometry" />
        </mxCell>
        <mxCell id="mN_4DbPug9KianaIwhmi-4" value="flask-pod2" style="aspect=fixed;sketch=0;html=1;dashed=0;whitespace=wrap;verticalLabelPosition=bottom;verticalAlign=top;fillColor=#2875E2;strokeColor=#ffffff;points=[[0.005,0.63,0],[0.1,0.2,0],[0.9,0.2,0],[0.5,0,0],[0.995,0.63,0],[0.72,0.99,0],[0.5,1,0],[0.28,0.99,0]];shape=mxgraph.kubernetes.icon2;prIcon=pod" vertex="1" parent="1">
          <mxGeometry x="430" y="239" width="50" height="48" as="geometry" />
        </mxCell>
        <mxCell id="mN_4DbPug9KianaIwhmi-5" style="edgeStyle=orthogonalEdgeStyle;rounded=0;orthogonalLoop=1;jettySize=auto;html=1;exitX=0.005;exitY=0.63;exitDx=0;exitDy=0;exitPerimeter=0;entryX=0.995;entryY=0.63;entryDx=0;entryDy=0;entryPerimeter=0;" edge="1" parent="1" target="mN_4DbPug9KianaIwhmi-3">
          <mxGeometry relative="1" as="geometry">
            <mxPoint x="588.25" y="208.24" as="sourcePoint" />
            <Array as="points">
              <mxPoint x="520" y="208" />
              <mxPoint x="520" y="160" />
            </Array>
          </mxGeometry>
        </mxCell>
        <mxCell id="mN_4DbPug9KianaIwhmi-6" style="edgeStyle=orthogonalEdgeStyle;rounded=0;orthogonalLoop=1;jettySize=auto;html=1;exitX=0.005;exitY=0.63;exitDx=0;exitDy=0;exitPerimeter=0;entryX=0.995;entryY=0.63;entryDx=0;entryDy=0;entryPerimeter=0;" edge="1" parent="1" source="mN_4DbPug9KianaIwhmi-17" target="mN_4DbPug9KianaIwhmi-4">
          <mxGeometry relative="1" as="geometry">
            <mxPoint x="588.25" y="208.24" as="sourcePoint" />
            <Array as="points">
              <mxPoint x="520" y="208" />
              <mxPoint x="520" y="269" />
            </Array>
          </mxGeometry>
        </mxCell>
        <mxCell id="mN_4DbPug9KianaIwhmi-7" value="NodePort" style="aspect=fixed;sketch=0;html=1;dashed=0;whitespace=wrap;verticalLabelPosition=bottom;verticalAlign=top;fillColor=#2875E2;strokeColor=#ffffff;points=[[0.005,0.63,0],[0.1,0.2,0],[0.9,0.2,0],[0.5,0,0],[0.995,0.63,0],[0.72,0.99,0],[0.5,1,0],[0.28,0.99,0]];shape=mxgraph.kubernetes.icon2;prIcon=svc" vertex="1" parent="1">
          <mxGeometry x="300" y="178" width="50" height="48" as="geometry" />
        </mxCell>
        <mxCell id="mN_4DbPug9KianaIwhmi-9" style="edgeStyle=orthogonalEdgeStyle;rounded=0;orthogonalLoop=1;jettySize=auto;html=1;exitX=0.995;exitY=0.63;exitDx=0;exitDy=0;exitPerimeter=0;entryX=0.005;entryY=0.63;entryDx=0;entryDy=0;entryPerimeter=0;" edge="1" parent="1" source="mN_4DbPug9KianaIwhmi-7" target="mN_4DbPug9KianaIwhmi-3">
          <mxGeometry relative="1" as="geometry">
            <Array as="points">
              <mxPoint x="390" y="208" />
              <mxPoint x="390" y="160" />
            </Array>
          </mxGeometry>
        </mxCell>
        <mxCell id="mN_4DbPug9KianaIwhmi-10" style="edgeStyle=orthogonalEdgeStyle;rounded=0;orthogonalLoop=1;jettySize=auto;html=1;exitX=0.995;exitY=0.63;exitDx=0;exitDy=0;exitPerimeter=0;entryX=0.005;entryY=0.63;entryDx=0;entryDy=0;entryPerimeter=0;" edge="1" parent="1" source="mN_4DbPug9KianaIwhmi-7" target="mN_4DbPug9KianaIwhmi-4">
          <mxGeometry relative="1" as="geometry">
            <Array as="points">
              <mxPoint x="390" y="208" />
              <mxPoint x="390" y="269" />
            </Array>
          </mxGeometry>
        </mxCell>
        <mxCell id="mN_4DbPug9KianaIwhmi-11" value="Ingress(flask-alb)" style="aspect=fixed;sketch=0;html=1;dashed=0;whitespace=wrap;verticalLabelPosition=bottom;verticalAlign=top;fillColor=#2875E2;strokeColor=#ffffff;points=[[0.005,0.63,0],[0.1,0.2,0],[0.9,0.2,0],[0.5,0,0],[0.995,0.63,0],[0.72,0.99,0],[0.5,1,0],[0.28,0.99,0]];shape=mxgraph.kubernetes.icon2;kubernetesLabel=1;prIcon=ing" vertex="1" parent="1">
          <mxGeometry x="170" y="178" width="50" height="48" as="geometry" />
        </mxCell>
        <mxCell id="mN_4DbPug9KianaIwhmi-13" style="edgeStyle=orthogonalEdgeStyle;rounded=0;orthogonalLoop=1;jettySize=auto;html=1;exitX=0.995;exitY=0.63;exitDx=0;exitDy=0;exitPerimeter=0;entryX=0.005;entryY=0.63;entryDx=0;entryDy=0;entryPerimeter=0;" edge="1" parent="1" source="mN_4DbPug9KianaIwhmi-11" target="mN_4DbPug9KianaIwhmi-7">
          <mxGeometry relative="1" as="geometry" />
        </mxCell>
        <mxCell id="mN_4DbPug9KianaIwhmi-14" style="edgeStyle=orthogonalEdgeStyle;rounded=0;orthogonalLoop=1;jettySize=auto;html=1;exitX=0.005;exitY=0.63;exitDx=0;exitDy=0;exitPerimeter=0;entryX=0.995;entryY=0.63;entryDx=0;entryDy=0;entryPerimeter=0;" edge="1" parent="1" source="mN_4DbPug9KianaIwhmi-18" target="mN_4DbPug9KianaIwhmi-17">
          <mxGeometry relative="1" as="geometry">
            <mxPoint x="637.75" y="208.24" as="targetPoint" />
          </mxGeometry>
        </mxCell>
        <mxCell id="mN_4DbPug9KianaIwhmi-16" value="Default-ns" style="aspect=fixed;sketch=0;html=1;dashed=0;whitespace=wrap;verticalLabelPosition=bottom;verticalAlign=top;fillColor=#2875E2;strokeColor=#ffffff;points=[[0.005,0.63,0],[0.1,0.2,0],[0.9,0.2,0],[0.5,0,0],[0.995,0.63,0],[0.72,0.99,0],[0.5,1,0],[0.28,0.99,0]];shape=mxgraph.kubernetes.icon2;prIcon=ns" vertex="1" parent="1">
          <mxGeometry x="140" y="90" width="50" height="48" as="geometry" />
        </mxCell>
        <mxCell id="mN_4DbPug9KianaIwhmi-17" value="flask-rs" style="aspect=fixed;sketch=0;html=1;dashed=0;whitespace=wrap;verticalLabelPosition=bottom;verticalAlign=top;fillColor=#2875E2;strokeColor=#ffffff;points=[[0.005,0.63,0],[0.1,0.2,0],[0.9,0.2,0],[0.5,0,0],[0.995,0.63,0],[0.72,0.99,0],[0.5,1,0],[0.28,0.99,0]];shape=mxgraph.kubernetes.icon2;prIcon=rs" vertex="1" parent="1">
          <mxGeometry x="560" y="178" width="50" height="48" as="geometry" />
        </mxCell>
        <mxCell id="mN_4DbPug9KianaIwhmi-19" value="" style="edgeStyle=orthogonalEdgeStyle;rounded=0;orthogonalLoop=1;jettySize=auto;html=1;exitX=0.005;exitY=0.63;exitDx=0;exitDy=0;exitPerimeter=0;entryX=0.995;entryY=0.63;entryDx=0;entryDy=0;entryPerimeter=0;" edge="1" parent="1" source="mN_4DbPug9KianaIwhmi-1" target="mN_4DbPug9KianaIwhmi-18">
          <mxGeometry relative="1" as="geometry">
            <mxPoint x="761" y="208" as="sourcePoint" />
            <mxPoint x="637.75" y="208.24" as="targetPoint" />
          </mxGeometry>
        </mxCell>
        <mxCell id="mN_4DbPug9KianaIwhmi-18" value="flask-deployment" style="aspect=fixed;sketch=0;html=1;dashed=0;whitespace=wrap;verticalLabelPosition=bottom;verticalAlign=top;fillColor=#2875E2;strokeColor=#ffffff;points=[[0.005,0.63,0],[0.1,0.2,0],[0.9,0.2,0],[0.5,0,0],[0.995,0.63,0],[0.72,0.99,0],[0.5,1,0],[0.28,0.99,0]];shape=mxgraph.kubernetes.icon2;kubernetesLabel=1;prIcon=deploy" vertex="1" parent="1">
          <mxGeometry x="650" y="178" width="50" height="48" as="geometry" />
        </mxCell>
      </root>
    </mxGraphModel>
  </diagram>
</mxfile>
